<svg xmlns="http://www.w3.org/2000/svg" viewBox="0 0 900 350" width="900px" height="350px"  ><defs><rect fill="#888A7D" width="900" height="350" id="background"  /><rect stroke="#666666" fill="#D8D9C5" stroke-width="1" opacity="1" width="50" height="50" id="key"  rx="10" /><rect stroke="#666666" fill="red" stroke-width="1" opacity="1" width="50" height="50" id="keyred"  rx="10" /><rect stroke="#666666" fill="#EBEDD7" stroke-width="1" opacity="1" width="70.0" height="50" id="ctrl"  rx="10" /><rect stroke="#666666" fill="#EBEDD7" stroke-width="1" opacity="1" width="105.0" height="50" id="BKSP"  rx="10" /><rect stroke="#666666" fill="#EBEDD7" stroke-width="1" opacity="1" width="80.0" height="50" id="TAB"  rx="10" /><text fill="black" opacity="1" id="AD01x"  font-size="14" font-weight="normal" >5</text><text fill="black" opacity="1" id="AD02x"  font-size="14" font-weight="normal" >4</text><text fill="black" opacity="1" id="AD03x"  font-size="14" font-weight="normal" >3</text><text fill="black" opacity="1" id="AD04x"  font-size="14" font-weight="normal" >2</text><text fill="black" opacity="1" id="AD05x"  font-size="14" font-weight="normal" >4</text><text fill="black" opacity="1" id="AD06x"  font-size="14" font-weight="normal" >6</text><text fill="black" opacity="1" id="AD07x"  font-size="14" font-weight="normal" >2</text><text fill="black" opacity="1" id="AD08x"  font-size="14" font-weight="normal" >3</text><text fill="black" opacity="1" id="AD09x"  font-size="14" font-weight="normal" >4</text><text fill="black" opacity="1" id="AD10x"  font-size="14" font-weight="normal" >5</text><text fill="black" opacity="1" id="AD11x"  font-size="14" font-weight="normal" >6</text><rect stroke="#666666" fill="#EBEDD7" stroke-width="1" opacity="1" width="75.0" height="50" id="AD121"  rx="10" /><rect stroke="#666666" fill="#EBEDD7" stroke-width="1" opacity="1" width="95.0" height="50" id="CAPS"  rx="10" /><text fill="black" opacity="1" id="AC01x"  font-size="14" font-weight="normal" >1</text><text fill="black" opacity="1" id="AC02x"  font-size="14" font-weight="normal" >0</text><text fill="black" opacity="1" id="AC03x"  font-size="14" font-weight="normal" >0</text><text fill="black" opacity="1" id="AC04x"  font-size="14" font-weight="normal" >0</text><text fill="black" opacity="1" id="AC05x"  font-size="14" font-weight="normal" >2</text><text fill="black" opacity="1" id="AC06x"  font-size="14" font-weight="normal" >2</text><text fill="black" opacity="1" id="AC07x"  font-size="14" font-weight="normal" >0</text><text fill="black" opacity="1" id="AC08x"  font-size="14" font-weight="normal" >0</text><text fill="black" opacity="1" id="AC09x"  font-size="14" font-weight="normal" >0</text><text fill="black" opacity="1" id="AC10x"  font-size="14" font-weight="normal" >1</text><text fill="black" opacity="1" id="AC11x"  font-size="14" font-weight="normal" >6</text><rect stroke="#666666" fill="#EBEDD7" stroke-width="1" opacity="1" width="60.0" height="50" id="RTRN"  rx="10" /><rect stroke="#666666" fill="#EBEDD7" stroke-width="1" opacity="1" width="130.0" height="50" id="LFSH"  rx="10" /><text fill="black" opacity="1" id="AB01x"  font-size="14" font-weight="normal" >6</text><text fill="black" opacity="1" id="AB02x"  font-size="14" font-weight="normal" >5</text><text fill="black" opacity="1" id="AB03x"  font-size="14" font-weight="normal" >4</text><text fill="black" opacity="1" id="AB04x"  font-size="14" font-weight="normal" >3</text><text fill="black" opacity="1" id="AB05x"  font-size="14" font-weight="normal" >6</text><text fill="black" opacity="1" id="AB06x"  font-size="14" font-weight="normal" >3</text><text fill="black" opacity="1" id="AB07x"  font-size="14" font-weight="normal" >4</text><text fill="black" opacity="1" id="AB08x"  font-size="14" font-weight="normal" >4</text><text fill="black" opacity="1" id="AB09x"  font-size="14" font-weight="normal" >5</text><text fill="black" opacity="1" id="AB10x"  font-size="14" font-weight="normal" >6</text><rect stroke="#666666" fill="#EBEDD7" stroke-width="1" opacity="1" width="130.0" height="50" id="RTSH"  rx="10" /><rect stroke="#666666" fill="#EBEDD7" stroke-width="1" opacity="1" width="70.0" height="50" id="LCTL"  rx="10" /><rect stroke="#666666" fill="#EBEDD7" stroke-width="1" opacity="1" width="70.0" height="50" id="LWIN"  rx="10" /><rect stroke="#666666" fill="#EBEDD7" stroke-width="1" opacity="1" width="70.0" height="50" id="LALT"  rx="10" /><rect stroke="#666666" fill="#EBEDD7" stroke-width="1" opacity="1" width="277.5" height="50" id="SPCE"  rx="10" /><rect stroke="#666666" fill="#EBEDD7" stroke-width="1" opacity="1" width="70.0" height="50" id="RALT"  rx="10" /><rect stroke="#666666" fill="#EBEDD7" stroke-width="1" opacity="1" width="70.0" height="50" id="RWIN"  rx="10" /><rect stroke="#666666" fill="#EBEDD7" stroke-width="1" opacity="1" width="70.0" height="50" id="COMP"  rx="10" /><rect stroke="#666666" fill="#EBEDD7" stroke-width="1" opacity="1" width="70.0" height="50" id="RCTL"  rx="10" /><rect fill="#EBEDD7" opacity="1" width="58.5" height="25.0" id="reti"  /><text fill="#3D5060" opacity="1" id="label"  font-size="22" font-weight="normal" >weights</text></defs><use x="0" y="0"  href="#background" /><use transform="translate(0,0) " opacity="1" x="50" y="50"  href="#key" /><use transform="translate(0,0) " opacity="1" x="102" y="50"  href="#key" /><use transform="translate(0,0) " opacity="1" x="154" y="50"  href="#key" /><use transform="translate(0,0) " opacity="1" x="206" y="50"  href="#key" /><use transform="translate(0,0) " opacity="1" x="258" y="50"  href="#key" /><use transform="translate(0,0) " opacity="1" x="310" y="50"  href="#key" /><use transform="translate(0,0) " opacity="1" x="362" y="50"  href="#key" /><use transform="translate(0,0) " opacity="1" x="414" y="50"  href="#key" /><use transform="translate(0,0) " opacity="1" x="466" y="50"  href="#key" /><use transform="translate(0,0) " opacity="1" x="518" y="50"  href="#key" /><use transform="translate(0,0) " opacity="1" x="570" y="50"  href="#key" /><use transform="translate(0,0) " opacity="1" x="622" y="50"  href="#key" /><use transform="translate(0,0) " opacity="1" x="674" y="50"  href="#key" /><use transform="translate(0,0) " opacity="1" x="726" y="50"  href="#BKSP" /><use transform="translate(0,0) " opacity="1" x="50" y="102"  href="#TAB" /><use transform="translate(0,0) " opacity="1" x="132.0" y="102"  href="#key" /><use x="142.0" y="142.0"  href="#AD01x" /><use transform="translate(0,0) " opacity="1" x="184.0" y="102"  href="#key" /><use x="194.0" y="142.0"  href="#AD02x" /><use transform="translate(0,0) " opacity="1" x="236.0" y="102"  href="#key" /><use x="246.0" y="142.0"  href="#AD03x" /><use transform="translate(0,0) " opacity="1" x="288.0" y="102"  href="#key" /><use x="298.0" y="142.0"  href="#AD04x" /><use transform="translate(0,0) " opacity="1" x="340.0" y="102"  href="#key" /><use x="350.0" y="142.0"  href="#AD05x" /><use transform="translate(0,0) " opacity="1" x="392.0" y="102"  href="#key" /><use x="402.0" y="142.0"  href="#AD06x" /><use transform="translate(0,0) " opacity="1" x="444.0" y="102"  href="#key" /><use x="454.0" y="142.0"  href="#AD07x" /><use transform="translate(0,0) " opacity="1" x="496.0" y="102"  href="#key" /><use x="506.0" y="142.0"  href="#AD08x" /><use transform="translate(0,0) " opacity="1" x="548.0" y="102"  href="#key" /><use x="558.0" y="142.0"  href="#AD09x" /><use transform="translate(0,0) " opacity="1" x="600.0" y="102"  href="#key" /><use x="610.0" y="142.0"  href="#AD10x" /><use transform="translate(0,0) " opacity="1" x="652.0" y="102"  href="#key" /><use x="662.0" y="142.0"  href="#AD11x" /><use transform="translate(0,0) " opacity="1" x="704.0" y="102"  href="#key" /><use transform="translate(0,0) " opacity="1" x="756.0" y="102"  href="#AD121" /><use transform="translate(0,0) " opacity="1" x="50" y="154"  href="#CAPS" /><use transform="translate(0,0) " opacity="1" x="147.0" y="154"  href="#key" /><use x="157.0" y="194.0"  href="#AC01x" /><use transform="translate(0,0) " opacity="1" x="199.0" y="154"  href="#key" /><use x="209.0" y="194.0"  href="#AC02x" /><use transform="translate(0,0) " opacity="1" x="251.0" y="154"  href="#key" /><use x="261.0" y="194.0"  href="#AC03x" /><use transform="translate(0,0) " opacity="1" x="303.0" y="154"  href="#key" /><use x="313.0" y="194.0"  href="#AC04x" /><use transform="translate(0,0) " opacity="1" x="355.0" y="154"  href="#key" /><use x="365.0" y="194.0"  href="#AC05x" /><use transform="translate(0,0) " opacity="1" x="407.0" y="154"  href="#key" /><use x="417.0" y="194.0"  href="#AC06x" /><use transform="translate(0,0) " opacity="1" x="459.0" y="154"  href="#key" /><use x="469.0" y="194.0"  href="#AC07x" /><use transform="translate(0,0) " opacity="1" x="511.0" y="154"  href="#key" /><use x="521.0" y="194.0"  href="#AC08x" /><use transform="translate(0,0) " opacity="1" x="563.0" y="154"  href="#key" /><use x="573.0" y="194.0"  href="#AC09x" /><use transform="translate(0,0) " opacity="1" x="615.0" y="154"  href="#key" /><use x="625.0" y="194.0"  href="#AC10x" /><use transform="translate(0,0) " opacity="1" x="667.0" y="154"  href="#key" /><use x="677.0" y="194.0"  href="#AC11x" /><use transform="translate(0,0) " opacity="1" x="719.0" y="154"  href="#key" /><use transform="translate(0,0) " opacity="1" x="771.0" y="154"  href="#RTRN" /><use transform="translate(0,0) " opacity="1" x="50" y="206"  href="#LFSH" /><use transform="translate(0,0) " opacity="1" x="182.0" y="206"  href="#key" /><use x="192.0" y="246.0"  href="#AB01x" /><use transform="translate(0,0) " opacity="1" x="234.0" y="206"  href="#key" /><use x="244.0" y="246.0"  href="#AB02x" /><use transform="translate(0,0) " opacity="1" x="286.0" y="206"  href="#key" /><use x="296.0" y="246.0"  href="#AB03x" /><use transform="translate(0,0) " opacity="1" x="338.0" y="206"  href="#key" /><use x="348.0" y="246.0"  href="#AB04x" /><use transform="translate(0,0) " opacity="1" x="390.0" y="206"  href="#key" /><use x="400.0" y="246.0"  href="#AB05x" /><use transform="translate(0,0) " opacity="1" x="442.0" y="206"  href="#key" /><use x="452.0" y="246.0"  href="#AB06x" /><use transform="translate(0,0) " opacity="1" x="494.0" y="206"  href="#key" /><use x="504.0" y="246.0"  href="#AB07x" /><use transform="translate(0,0) " opacity="1" x="546.0" y="206"  href="#key" /><use x="556.0" y="246.0"  href="#AB08x" /><use transform="translate(0,0) " opacity="1" x="598.0" y="206"  href="#key" /><use x="608.0" y="246.0"  href="#AB09x" /><use transform="translate(0,0) " opacity="1" x="650.0" y="206"  href="#key" /><use x="660.0" y="246.0"  href="#AB10x" /><use transform="translate(0,0) " opacity="1" x="702.0" y="206"  href="#RTSH" /><use transform="translate(0,0) " opacity="1" x="50" y="258"  href="#LCTL" /><use transform="translate(0,0) " opacity="1" x="122.0" y="258"  href="#LWIN" /><use transform="translate(0,0) " opacity="1" x="194.0" y="258"  href="#LALT" /><use transform="translate(0,0) " opacity="1" x="266.0" y="258"  href="#SPCE" /><use transform="translate(0,0) " opacity="1" x="545.5" y="258"  href="#RALT" /><use transform="translate(0,0) " opacity="1" x="617.5" y="258"  href="#RWIN" /><use transform="translate(0,0) " opacity="1" x="689.5" y="258"  href="#COMP" /><use transform="translate(0,0) " opacity="1" x="761.5" y="258"  href="#RCTL" /><use x="772" y="142"  href="#reti" /><use x="679.0" y="340.0"  href="#label" /></svg>
