<svg xmlns="http://www.w3.org/2000/svg" viewBox="0 0 900 350" width="900px" height="350px"  ><defs><rect fill="#888A7D" width="900" height="350" id="background"  /><rect stroke="#666666" fill="#D8D9C5" stroke-width="1" opacity="1" width="50" height="50" id="key"  rx="10" /><rect stroke="#666666" fill="red" stroke-width="1" opacity="1" width="50" height="50" id="keyred"  rx="10" /><rect stroke="#666666" fill="#EBEDD7" stroke-width="1" opacity="1" width="70.0" height="50" id="ctrl"  rx="10" /><text fill="black" opacity="1" id="TLDEx"  font-size="14" font-weight="normal" >€</text><text fill="black" opacity="1" id="TLDEx2"  font-size="14" font-weight="normal" >£</text><text fill="black" opacity="1" id="AE01x"  font-size="14" font-weight="normal" >1</text><text fill="black" opacity="1" id="AE01x2"  font-size="14" font-weight="normal" >&lt;</text><text fill="black" opacity="1" id="AE02x"  font-size="14" font-weight="normal" >2</text><text fill="black" opacity="1" id="AE02x2"  font-size="14" font-weight="normal" >{</text><text fill="black" opacity="1" id="AE03x"  font-size="14" font-weight="normal" >3</text><text fill="black" opacity="1" id="AE03x2"  font-size="14" font-weight="normal" >[</text><text fill="black" opacity="1" id="AE04x"  font-size="14" font-weight="normal" >4</text><text fill="black" opacity="1" id="AE04x2"  font-size="14" font-weight="normal" >(</text><text fill="black" opacity="1" id="AE05x"  font-size="14" font-weight="normal" >5</text><text fill="black" opacity="1" id="AE05x2"  font-size="14" font-weight="normal" >&amp;</text><text fill="black" opacity="1" id="AE06x"  font-size="14" font-weight="normal" >6</text><text fill="black" opacity="1" id="AE06x2"  font-size="14" font-weight="normal" >|</text><text fill="black" opacity="1" id="AE07x"  font-size="14" font-weight="normal" >7</text><text fill="black" opacity="1" id="AE07x2"  font-size="14" font-weight="normal" >)</text><text fill="black" opacity="1" id="AE08x"  font-size="14" font-weight="normal" >8</text><text fill="black" opacity="1" id="AE08x2"  font-size="14" font-weight="normal" >]</text><text fill="black" opacity="1" id="AE09x"  font-size="14" font-weight="normal" >9</text><text fill="black" opacity="1" id="AE09x2"  font-size="14" font-weight="normal" >}</text><text fill="black" opacity="1" id="AE10x"  font-size="14" font-weight="normal" >0</text><text fill="black" opacity="1" id="AE10x2"  font-size="14" font-weight="normal" >&gt;</text><text fill="black" opacity="1" id="AE11x"  font-size="14" font-weight="normal" >=</text><text fill="black" opacity="1" id="AE11x2"  font-size="14" font-weight="normal" >+</text><text fill="black" opacity="1" id="AE12x"  font-size="14" font-weight="normal" >~</text><text fill="black" opacity="1" id="AE12x2"  font-size="14" font-weight="normal" >\</text><rect stroke="#666666" fill="#EBEDD7" stroke-width="1" opacity="1" width="105.0" height="50" id="BKSP"  rx="10" /><text fill="black" opacity="1" id="BKSPx"  font-size="14" font-weight="normal" >BackSpace</text><rect stroke="#666666" fill="#EBEDD7" stroke-width="1" opacity="1" width="80.0" height="50" id="TAB"  rx="10" /><text fill="black" opacity="1" id="TABx"  font-size="14" font-weight="normal" >Tab</text><text fill="black" opacity="1" id="AD01x"  font-size="14" font-weight="normal" >x</text><text fill="black" opacity="1" id="AD01x2"  font-size="14" font-weight="normal" >X</text><text fill="black" opacity="1" id="AD02x"  font-size="14" font-weight="normal" >z</text><text fill="black" opacity="1" id="AD02x2"  font-size="14" font-weight="normal" >Z</text><text fill="black" opacity="1" id="AD03x"  font-size="14" font-weight="normal" >o</text><text fill="black" opacity="1" id="AD03x2"  font-size="14" font-weight="normal" >O</text><text fill="black" opacity="1" id="AD04x"  font-size="14" font-weight="normal" >i</text><text fill="black" opacity="1" id="AD04x2"  font-size="14" font-weight="normal" >I</text><text fill="black" opacity="1" id="AD05x"  font-size="14" font-weight="normal" >-</text><text fill="black" opacity="1" id="AD05x2"  font-size="14" font-weight="normal" >_</text><text fill="black" opacity="1" id="AD06x"  font-size="14" font-weight="normal" >w</text><text fill="black" opacity="1" id="AD06x2"  font-size="14" font-weight="normal" >W</text><text fill="black" opacity="1" id="AD07x"  font-size="14" font-weight="normal" >n</text><text fill="black" opacity="1" id="AD07x2"  font-size="14" font-weight="normal" >N</text><text fill="black" opacity="1" id="AD08x"  font-size="14" font-weight="normal" >c</text><text fill="black" opacity="1" id="AD08x2"  font-size="14" font-weight="normal" >C</text><text fill="black" opacity="1" id="AD09x"  font-size="14" font-weight="normal" >g</text><text fill="black" opacity="1" id="AD09x2"  font-size="14" font-weight="normal" >G</text><text fill="black" opacity="1" id="AD10x"  font-size="14" font-weight="normal" >v</text><text fill="black" opacity="1" id="AD10x2"  font-size="14" font-weight="normal" >V</text><text fill="black" opacity="1" id="AD11x"  font-size="14" font-weight="normal" >k</text><text fill="black" opacity="1" id="AD11x2"  font-size="14" font-weight="normal" >K</text><text fill="black" opacity="1" id="AD12x"  font-size="14" font-weight="normal" >*</text><text fill="black" opacity="1" id="AD12x2"  font-size="14" font-weight="normal" >#</text><rect stroke="#666666" fill="#EBEDD7" stroke-width="1" opacity="1" width="75.0" height="50" id="AD121"  rx="10" /><rect stroke="#666666" fill="#EBEDD7" stroke-width="1" opacity="1" width="95.0" height="50" id="CAPS"  rx="10" /><text fill="black" opacity="1" id="CAPSx"  font-size="14" font-weight="normal" >@</text><text fill="black" opacity="1" id="CAPSx2"  font-size="14" font-weight="normal" >$</text><text fill="black" opacity="1" id="AC01x"  font-size="14" font-weight="normal" >y</text><text fill="black" opacity="1" id="AC01x2"  font-size="14" font-weight="normal" >Y</text><text fill="black" opacity="1" id="AC02x"  font-size="14" font-weight="normal" >h</text><text fill="black" opacity="1" id="AC02x2"  font-size="14" font-weight="normal" >H</text><text fill="black" opacity="1" id="AC03x"  font-size="14" font-weight="normal" >e</text><text fill="black" opacity="1" id="AC03x2"  font-size="14" font-weight="normal" >E</text><text fill="black" opacity="1" id="AC04x"  font-size="14" font-weight="normal" >a</text><text fill="black" opacity="1" id="AC04x2"  font-size="14" font-weight="normal" >A</text><text fill="black" opacity="1" id="AC05x"  font-size="14" font-weight="normal" >u</text><text fill="black" opacity="1" id="AC05x2"  font-size="14" font-weight="normal" >U</text><text fill="black" opacity="1" id="AC06x"  font-size="14" font-weight="normal" >l</text><text fill="black" opacity="1" id="AC06x2"  font-size="14" font-weight="normal" >L</text><text fill="black" opacity="1" id="AC07x"  font-size="14" font-weight="normal" >r</text><text fill="black" opacity="1" id="AC07x2"  font-size="14" font-weight="normal" >R</text><text fill="black" opacity="1" id="AC08x"  font-size="14" font-weight="normal" >s</text><text fill="black" opacity="1" id="AC08x2"  font-size="14" font-weight="normal" >S</text><text fill="black" opacity="1" id="AC09x"  font-size="14" font-weight="normal" >d</text><text fill="black" opacity="1" id="AC09x2"  font-size="14" font-weight="normal" >D</text><text fill="black" opacity="1" id="AC10x"  font-size="14" font-weight="normal" >t</text><text fill="black" opacity="1" id="AC10x2"  font-size="14" font-weight="normal" >T</text><text fill="black" opacity="1" id="AC11x"  font-size="14" font-weight="normal" >m</text><text fill="black" opacity="1" id="AC11x2"  font-size="14" font-weight="normal" >M</text><text fill="black" opacity="1" id="BKSLx"  font-size="14" font-weight="normal" >%</text><text fill="black" opacity="1" id="BKSLx2"  font-size="14" font-weight="normal" >^</text><rect stroke="#666666" fill="#EBEDD7" stroke-width="1" opacity="1" width="60.0" height="50" id="RTRN"  rx="10" /><text fill="black" opacity="1" id="RTRNx"  font-size="14" font-weight="normal" >Return</text><rect stroke="#666666" fill="#EBEDD7" stroke-width="1" opacity="1" width="130.0" height="50" id="LFSH"  rx="10" /><text fill="black" opacity="1" id="LFSHx"  font-size="14" font-weight="normal" >ISO_Level3_Shift</text><text fill="black" opacity="1" id="AB01x"  font-size="14" font-weight="normal" >q</text><text fill="black" opacity="1" id="AB01x2"  font-size="14" font-weight="normal" >Q</text><text fill="black" opacity="1" id="AB02x"  font-size="14" font-weight="normal" >/</text><text fill="black" opacity="1" id="AB02x2"  font-size="14" font-weight="normal" >!</text><text fill="black" opacity="1" id="AB03x"  font-size="14" font-weight="normal" >;</text><text fill="black" opacity="1" id="AB03x2"  font-size="14" font-weight="normal" >:</text><text fill="black" opacity="1" id="AB04x"  font-size="14" font-weight="normal" >.</text><text fill="black" opacity="1" id="AB04x2"  font-size="14" font-weight="normal" >?</text><text fill="black" opacity="1" id="AB05x"  font-size="14" font-weight="normal" >&#39;</text><text fill="black" opacity="1" id="AB05x2"  font-size="14" font-weight="normal" >&quot;</text><text fill="black" opacity="1" id="AB06x"  font-size="14" font-weight="normal" >,</text><text fill="black" opacity="1" id="AB06x2"  font-size="14" font-weight="normal" >`</text><text fill="black" opacity="1" id="AB07x"  font-size="14" font-weight="normal" >f</text><text fill="black" opacity="1" id="AB07x2"  font-size="14" font-weight="normal" >F</text><text fill="black" opacity="1" id="AB08x"  font-size="14" font-weight="normal" >p</text><text fill="black" opacity="1" id="AB08x2"  font-size="14" font-weight="normal" >P</text><text fill="black" opacity="1" id="AB09x"  font-size="14" font-weight="normal" >b</text><text fill="black" opacity="1" id="AB09x2"  font-size="14" font-weight="normal" >B</text><text fill="black" opacity="1" id="AB10x"  font-size="14" font-weight="normal" >j</text><text fill="black" opacity="1" id="AB10x2"  font-size="14" font-weight="normal" >J</text><rect stroke="#666666" fill="#EBEDD7" stroke-width="1" opacity="1" width="130.0" height="50" id="RTSH"  rx="10" /><text fill="black" opacity="1" id="RTSHx"  font-size="14" font-weight="normal" >ISO_Level3_Shift</text><rect stroke="#666666" fill="#EBEDD7" stroke-width="1" opacity="1" width="70.0" height="50" id="LCTL"  rx="10" /><text fill="black" opacity="1" id="LCTLx"  font-size="14" font-weight="normal" >Ctrl_L</text><rect stroke="#666666" fill="#EBEDD7" stroke-width="1" opacity="1" width="70.0" height="50" id="LWIN"  rx="10" /><text fill="black" opacity="1" id="LWINx"  font-size="14" font-weight="normal" >Alt_L</text><rect stroke="#666666" fill="#EBEDD7" stroke-width="1" opacity="1" width="70.0" height="50" id="LALT"  rx="10" /><text fill="black" opacity="1" id="LALTx"  font-size="14" font-weight="normal" >Shift_L</text><rect stroke="#666666" fill="#EBEDD7" stroke-width="1" opacity="1" width="277.5" height="50" id="SPCE"  rx="10" /><text fill="black" opacity="1" id="SPCEx"  font-size="14" font-weight="normal" >Space</text><rect stroke="#666666" fill="#EBEDD7" stroke-width="1" opacity="1" width="70.0" height="50" id="RALT"  rx="10" /><text fill="black" opacity="1" id="RALTx"  font-size="14" font-weight="normal" >Shift_L</text><rect stroke="#666666" fill="#EBEDD7" stroke-width="1" opacity="1" width="70.0" height="50" id="RWIN"  rx="10" /><text fill="black" opacity="1" id="RWINx"  font-size="14" font-weight="normal" >Alt_R</text><rect stroke="#666666" fill="#EBEDD7" stroke-width="1" opacity="1" width="70.0" height="50" id="COMP"  rx="10" /><text fill="black" opacity="1" id="COMPx"  font-size="14" font-weight="normal" >Multi_key</text><rect stroke="#666666" fill="#EBEDD7" stroke-width="1" opacity="1" width="70.0" height="50" id="RCTL"  rx="10" /><text fill="black" opacity="1" id="RCTLx"  font-size="14" font-weight="normal" >Ctrl_R</text><rect fill="#EBEDD7" opacity="1" width="58.5" height="25.0" id="reti"  /><text fill="#3D5060" opacity="1" id="label"  font-size="22" font-weight="normal" >kilo68</text></defs><use x="0" y="0"  href="#background" /><use transform="translate(0,0) " opacity="1" x="50" y="50"  href="#key" /><use transform="translate(0,0) " opacity="0.0" x="50" y="50"  href="#keyred" /><use x="60.0" y="90.0"  href="#TLDEx" /><use x="60.0" y="70.0"  href="#TLDEx2" /><use transform="translate(0,0) " opacity="1" x="102" y="50"  href="#key" /><use transform="translate(0,0) " opacity="0.0" x="102" y="50"  href="#keyred" /><use x="112.0" y="90.0"  href="#AE01x" /><use x="112.0" y="70.0"  href="#AE01x2" /><use transform="translate(0,0) " opacity="1" x="154" y="50"  href="#key" /><use transform="translate(0,0) " opacity="0.0" x="154" y="50"  href="#keyred" /><use x="164.0" y="90.0"  href="#AE02x" /><use x="164.0" y="70.0"  href="#AE02x2" /><use transform="translate(0,0) " opacity="1" x="206" y="50"  href="#key" /><use transform="translate(0,0) " opacity="0.0" x="206" y="50"  href="#keyred" /><use x="216.0" y="90.0"  href="#AE03x" /><use x="216.0" y="70.0"  href="#AE03x2" /><use transform="translate(0,0) " opacity="1" x="258" y="50"  href="#key" /><use transform="translate(0,0) " opacity="0.0" x="258" y="50"  href="#keyred" /><use x="268.0" y="90.0"  href="#AE04x" /><use x="268.0" y="70.0"  href="#AE04x2" /><use transform="translate(0,0) " opacity="1" x="310" y="50"  href="#key" /><use transform="translate(0,0) " opacity="0.0" x="310" y="50"  href="#keyred" /><use x="320.0" y="90.0"  href="#AE05x" /><use x="320.0" y="70.0"  href="#AE05x2" /><use transform="translate(0,0) " opacity="1" x="362" y="50"  href="#key" /><use transform="translate(0,0) " opacity="0.0" x="362" y="50"  href="#keyred" /><use x="372.0" y="90.0"  href="#AE06x" /><use x="372.0" y="70.0"  href="#AE06x2" /><use transform="translate(0,0) " opacity="1" x="414" y="50"  href="#key" /><use transform="translate(0,0) " opacity="0.0" x="414" y="50"  href="#keyred" /><use x="424.0" y="90.0"  href="#AE07x" /><use x="424.0" y="70.0"  href="#AE07x2" /><use transform="translate(0,0) " opacity="1" x="466" y="50"  href="#key" /><use transform="translate(0,0) " opacity="0.0" x="466" y="50"  href="#keyred" /><use x="476.0" y="90.0"  href="#AE08x" /><use x="476.0" y="70.0"  href="#AE08x2" /><use transform="translate(0,0) " opacity="1" x="518" y="50"  href="#key" /><use transform="translate(0,0) " opacity="0.0" x="518" y="50"  href="#keyred" /><use x="528.0" y="90.0"  href="#AE09x" /><use x="528.0" y="70.0"  href="#AE09x2" /><use transform="translate(0,0) " opacity="1" x="570" y="50"  href="#key" /><use transform="translate(0,0) " opacity="0.0" x="570" y="50"  href="#keyred" /><use x="580.0" y="90.0"  href="#AE10x" /><use x="580.0" y="70.0"  href="#AE10x2" /><use transform="translate(0,0) " opacity="1" x="622" y="50"  href="#key" /><use transform="translate(0,0) " opacity="0.0" x="622" y="50"  href="#keyred" /><use x="632.0" y="90.0"  href="#AE11x" /><use x="632.0" y="70.0"  href="#AE11x2" /><use transform="translate(0,0) " opacity="1" x="674" y="50"  href="#key" /><use transform="translate(0,0) " opacity="0.0" x="674" y="50"  href="#keyred" /><use x="684.0" y="90.0"  href="#AE12x" /><use x="684.0" y="70.0"  href="#AE12x2" /><use transform="translate(0,0) " opacity="1" x="726" y="50"  href="#BKSP" /><use x="736.0" y="90.0"  href="#BKSPx" /><use transform="translate(0,0) " opacity="1" x="50" y="102"  href="#TAB" /><use x="60.0" y="142.0"  href="#TABx" /><use transform="translate(0,0) " opacity="1" x="132.0" y="102"  href="#key" /><use transform="translate(0,0) " opacity="0.0105" x="132.0" y="102"  href="#keyred" /><use x="142.0" y="142.0"  href="#AD01x" /><use x="142.0" y="122.0"  href="#AD01x2" /><use transform="translate(0,0) " opacity="1" x="184.0" y="102"  href="#key" /><use transform="translate(0,0) " opacity="0.0045" x="184.0" y="102"  href="#keyred" /><use x="194.0" y="142.0"  href="#AD02x" /><use x="194.0" y="122.0"  href="#AD02x2" /><use transform="translate(0,0) " opacity="1" x="236.0" y="102"  href="#key" /><use transform="translate(0,0) " opacity="0.3845" x="236.0" y="102"  href="#keyred" /><use x="246.0" y="142.0"  href="#AD03x" /><use x="246.0" y="122.0"  href="#AD03x2" /><use transform="translate(0,0) " opacity="1" x="288.0" y="102"  href="#key" /><use transform="translate(0,0) " opacity="0.369" x="288.0" y="102"  href="#keyred" /><use x="298.0" y="142.0"  href="#AD04x" /><use x="298.0" y="122.0"  href="#AD04x2" /><use transform="translate(0,0) " opacity="1" x="340.0" y="102"  href="#key" /><use transform="translate(0,0) " opacity="0.0115" x="340.0" y="102"  href="#keyred" /><use x="350.0" y="142.0"  href="#AD05x" /><use x="350.0" y="122.0"  href="#AD05x2" /><use transform="translate(0,0) " opacity="1" x="392.0" y="102"  href="#key" /><use transform="translate(0,0) " opacity="0.074" x="392.0" y="102"  href="#keyred" /><use x="402.0" y="142.0"  href="#AD06x" /><use x="402.0" y="122.0"  href="#AD06x2" /><use transform="translate(0,0) " opacity="1" x="444.0" y="102"  href="#key" /><use transform="translate(0,0) " opacity="0.3605" x="444.0" y="102"  href="#keyred" /><use x="454.0" y="142.0"  href="#AD07x" /><use x="454.0" y="122.0"  href="#AD07x2" /><use transform="translate(0,0) " opacity="1" x="496.0" y="102"  href="#key" /><use transform="translate(0,0) " opacity="0.1625" x="496.0" y="102"  href="#keyred" /><use x="506.0" y="142.0"  href="#AD08x" /><use x="506.0" y="122.0"  href="#AD08x2" /><use transform="translate(0,0) " opacity="1" x="548.0" y="102"  href="#key" /><use transform="translate(0,0) " opacity="0.0955" x="548.0" y="102"  href="#keyred" /><use x="558.0" y="142.0"  href="#AD09x" /><use x="558.0" y="122.0"  href="#AD09x2" /><use transform="translate(0,0) " opacity="1" x="600.0" y="102"  href="#key" /><use transform="translate(0,0) " opacity="0.0545" x="600.0" y="102"  href="#keyred" /><use x="610.0" y="142.0"  href="#AD10x" /><use x="610.0" y="122.0"  href="#AD10x2" /><use transform="translate(0,0) " opacity="1" x="652.0" y="102"  href="#key" /><use transform="translate(0,0) " opacity="0.0295" x="652.0" y="102"  href="#keyred" /><use x="662.0" y="142.0"  href="#AD11x" /><use x="662.0" y="122.0"  href="#AD11x2" /><use transform="translate(0,0) " opacity="1" x="704.0" y="102"  href="#key" /><use transform="translate(0,0) " opacity="0.0" x="704.0" y="102"  href="#keyred" /><use x="714.0" y="142.0"  href="#AD12x" /><use x="714.0" y="122.0"  href="#AD12x2" /><use transform="translate(0,0) " opacity="1" x="756.0" y="102"  href="#AD121" /><use transform="translate(0,0) " opacity="1" x="50" y="154"  href="#CAPS" /><use x="60.0" y="194.0"  href="#CAPSx" /><use x="60.0" y="174.0"  href="#CAPSx2" /><use transform="translate(0,0) " opacity="1" x="147.0" y="154"  href="#key" /><use transform="translate(0,0) " opacity="0.084" x="147.0" y="154"  href="#keyred" /><use x="157.0" y="194.0"  href="#AC01x" /><use x="157.0" y="174.0"  href="#AC01x2" /><use transform="translate(0,0) " opacity="1" x="199.0" y="154"  href="#key" /><use transform="translate(0,0) " opacity="0.2155" x="199.0" y="154"  href="#keyred" /><use x="209.0" y="194.0"  href="#AC02x" /><use x="209.0" y="174.0"  href="#AC02x2" /><use transform="translate(0,0) " opacity="1" x="251.0" y="154"  href="#key" /><use transform="translate(0,0) " opacity="0.609" x="251.0" y="154"  href="#keyred" /><use x="261.0" y="194.0"  href="#AC03x" /><use x="261.0" y="174.0"  href="#AC03x2" /><use transform="translate(0,0) " opacity="1" x="303.0" y="154"  href="#key" /><use transform="translate(0,0) " opacity="0.396" x="303.0" y="154"  href="#keyred" /><use x="313.0" y="194.0"  href="#AC04x" /><use x="313.0" y="174.0"  href="#AC04x2" /><use transform="translate(0,0) " opacity="1" x="355.0" y="154"  href="#key" /><use transform="translate(0,0) " opacity="0.139" x="355.0" y="154"  href="#keyred" /><use x="365.0" y="194.0"  href="#AC05x" /><use x="365.0" y="174.0"  href="#AC05x2" /><use transform="translate(0,0) " opacity="1" x="407.0" y="154"  href="#key" /><use transform="translate(0,0) " opacity="0.204" x="407.0" y="154"  href="#keyred" /><use x="417.0" y="194.0"  href="#AC06x" /><use x="417.0" y="174.0"  href="#AC06x2" /><use transform="translate(0,0) " opacity="1" x="459.0" y="154"  href="#key" /><use transform="translate(0,0) " opacity="0.3185" x="459.0" y="154"  href="#keyred" /><use x="469.0" y="194.0"  href="#AC07x" /><use x="469.0" y="174.0"  href="#AC07x2" /><use transform="translate(0,0) " opacity="1" x="511.0" y="154"  href="#key" /><use transform="translate(0,0) " opacity="0.324" x="511.0" y="154"  href="#keyred" /><use x="521.0" y="194.0"  href="#AC08x" /><use x="521.0" y="174.0"  href="#AC08x2" /><use transform="translate(0,0) " opacity="1" x="563.0" y="154"  href="#key" /><use transform="translate(0,0) " opacity="0.1805" x="563.0" y="154"  href="#keyred" /><use x="573.0" y="194.0"  href="#AC09x" /><use x="573.0" y="174.0"  href="#AC09x2" /><use transform="translate(0,0) " opacity="1" x="615.0" y="154"  href="#key" /><use transform="translate(0,0) " opacity="0.439" x="615.0" y="154"  href="#keyred" /><use x="625.0" y="194.0"  href="#AC10x" /><use x="625.0" y="174.0"  href="#AC10x2" /><use transform="translate(0,0) " opacity="1" x="667.0" y="154"  href="#key" /><use transform="translate(0,0) " opacity="0.1185" x="667.0" y="154"  href="#keyred" /><use x="677.0" y="194.0"  href="#AC11x" /><use x="677.0" y="174.0"  href="#AC11x2" /><use transform="translate(0,0) " opacity="1" x="719.0" y="154"  href="#key" /><use transform="translate(0,0) " opacity="0.0" x="719.0" y="154"  href="#keyred" /><use x="729.0" y="194.0"  href="#BKSLx" /><use x="729.0" y="174.0"  href="#BKSLx2" /><use transform="translate(0,0) " opacity="1" x="771.0" y="154"  href="#RTRN" /><use x="781.0" y="194.0"  href="#RTRNx" /><use transform="translate(0,0) " opacity="1" x="50" y="206"  href="#LFSH" /><use x="60.0" y="246.0"  href="#LFSHx" /><use transform="translate(0,0) " opacity="1" x="182.0" y="206"  href="#key" /><use transform="translate(0,0) " opacity="0.005" x="182.0" y="206"  href="#keyred" /><use x="192.0" y="246.0"  href="#AB01x" /><use x="192.0" y="226.0"  href="#AB01x2" /><use transform="translate(0,0) " opacity="1" x="234.0" y="206"  href="#key" /><use transform="translate(0,0) " opacity="0.0005" x="234.0" y="206"  href="#keyred" /><use x="244.0" y="246.0"  href="#AB02x" /><use x="244.0" y="226.0"  href="#AB02x2" /><use transform="translate(0,0) " opacity="1" x="286.0" y="206"  href="#key" /><use transform="translate(0,0) " opacity="0.001" x="286.0" y="206"  href="#keyred" /><use x="296.0" y="246.0"  href="#AB03x" /><use x="296.0" y="226.0"  href="#AB03x2" /><use transform="translate(0,0) " opacity="1" x="338.0" y="206"  href="#key" /><use transform="translate(0,0) " opacity="0.058" x="338.0" y="206"  href="#keyred" /><use x="348.0" y="246.0"  href="#AB04x" /><use x="348.0" y="226.0"  href="#AB04x2" /><use transform="translate(0,0) " opacity="1" x="390.0" y="206"  href="#key" /><use transform="translate(0,0) " opacity="0.011" x="390.0" y="206"  href="#keyred" /><use x="400.0" y="246.0"  href="#AB05x" /><use x="400.0" y="226.0"  href="#AB05x2" /><use transform="translate(0,0) " opacity="1" x="442.0" y="206"  href="#key" /><use transform="translate(0,0) " opacity="0.052" x="442.0" y="206"  href="#keyred" /><use x="452.0" y="246.0"  href="#AB06x" /><use x="452.0" y="226.0"  href="#AB06x2" /><use transform="translate(0,0) " opacity="1" x="494.0" y="206"  href="#key" /><use transform="translate(0,0) " opacity="0.1045" x="494.0" y="206"  href="#keyred" /><use x="504.0" y="246.0"  href="#AB07x" /><use x="504.0" y="226.0"  href="#AB07x2" /><use transform="translate(0,0) " opacity="1" x="546.0" y="206"  href="#key" /><use transform="translate(0,0) " opacity="0.1045" x="546.0" y="206"  href="#keyred" /><use x="556.0" y="246.0"  href="#AB08x" /><use x="556.0" y="226.0"  href="#AB08x2" /><use transform="translate(0,0) " opacity="1" x="598.0" y="206"  href="#key" /><use transform="translate(0,0) " opacity="0.0645" x="598.0" y="206"  href="#keyred" /><use x="608.0" y="246.0"  href="#AB09x" /><use x="608.0" y="226.0"  href="#AB09x2" /><use transform="translate(0,0) " opacity="1" x="650.0" y="206"  href="#key" /><use transform="translate(0,0) " opacity="0.0055" x="650.0" y="206"  href="#keyred" /><use x="660.0" y="246.0"  href="#AB10x" /><use x="660.0" y="226.0"  href="#AB10x2" /><use transform="translate(0,0) " opacity="1" x="702.0" y="206"  href="#RTSH" /><use x="712.0" y="246.0"  href="#RTSHx" /><use transform="translate(0,0) " opacity="1" x="50" y="258"  href="#LCTL" /><use x="60.0" y="298.0"  href="#LCTLx" /><use transform="translate(0,0) " opacity="1" x="122.0" y="258"  href="#LWIN" /><use x="132.0" y="298.0"  href="#LWINx" /><use transform="translate(0,0) " opacity="1" x="194.0" y="258"  href="#LALT" /><use x="204.0" y="298.0"  href="#LALTx" /><use transform="translate(0,0) " opacity="1" x="266.0" y="258"  href="#SPCE" /><use x="276.0" y="298.0"  href="#SPCEx" /><use transform="translate(0,0) " opacity="1" x="545.5" y="258"  href="#RALT" /><use x="555.5" y="298.0"  href="#RALTx" /><use transform="translate(0,0) " opacity="1" x="617.5" y="258"  href="#RWIN" /><use x="627.5" y="298.0"  href="#RWINx" /><use transform="translate(0,0) " opacity="1" x="689.5" y="258"  href="#COMP" /><use x="699.5" y="298.0"  href="#COMPx" /><use transform="translate(0,0) " opacity="1" x="761.5" y="258"  href="#RCTL" /><use x="771.5" y="298.0"  href="#RCTLx" /><use x="772" y="142"  href="#reti" /><use x="679.0" y="340.0"  href="#label" /></svg>
